<svg xmlns="http://www.w3.org/2000/svg" xmlns:xlink="http://www.w3.org/1999/xlink" version="1.1" style="" xml:space="preserve" width="612" height="612"><rect id="backgroundrect" width="100%" height="100%" x="0" y="0" fill="none" stroke="none"/>

<g class="currentLayer" style=""><title>Layer 1</title><g id="svg_1" class="selected" fill="#fcbd1b" fill-opacity="1">
	<g id="svg_2" fill="#fcbd1b" fill-opacity="1">
		<path d="M230.7,181.2c-2.4,2.6-3.9,4.3-5.1,5.5C227.8,184.4,230.7,181.2,230.7,181.2z" id="svg_3" fill="#fcbd1b" fill-opacity="1"/>
		<path d="M338.9,195.7c8.3,10.3,12.5,22.4,12.5,36.3c0,10-2.9,19.6-8.5,28.9c-3.1,5.3-7.2,10.3-12.4,15.2L313.4,293    c-16.4,16.1-27,30.4-31.8,42.9c-4.8,12.5-7.3,28.9-7.3,49.3h38.1c0-17.9,2-31.5,6.1-40.7c4.1-9.2,12.9-20.4,26.6-33.7    c18.8-18.2,31.3-32.1,37.5-41.5c6.2-9.4,9.3-21.7,9.3-36.8c0-24.9-8.4-45.4-25.3-61.5c-16.9-16-39.4-24-67.4-24    c-30.3,0-54.2,9.4-71.6,28.1s-26.1,43.5-26.1,74.3h38.1c0.7-18.5,3.6-32.7,8.8-42.5c9.1-17.7,25.6-26.5,49.4-26.5    C316.8,180.3,330.6,185.5,338.9,195.7z" id="svg_4" fill="#fcbd1b" fill-opacity="1"/>
		<path d="M612,306C612,137,475,0,306,0C137,0,0,137,0,306c0,169,137,306,306,306C475,612,612,475,612,306z M27.8,306    C27.8,152.4,152.4,27.8,306,27.8S584.2,152.4,584.2,306S459.6,584.2,306,584.2S27.8,459.6,27.8,306z" id="svg_5" fill="#fcbd1b" fill-opacity="1"/>
		<rect x="273.3999938964844" y="420.6000061035156" width="42.5" height="44.400001525878906" id="svg_6" fill="#fcbd1b" fill-opacity="1"/>
	</g>
</g></g></svg>